<svg id="Doughnut" xmlns="http://www.w3.org/2000/svg" width="21.164" height="17.892" viewBox="0 0 21.164 17.892">
  <g id="Frame" transform="translate(-0.475 -3.83)">
    <path id="Vector" d="M21.12,6.4c-.639,4.006-4.719,6.677-10.539,6.677S.682,10.405.044,6.4C-.107,5.454.139,1.212.688.39c1.564-2.341,2.123,6.622,9.893,6.622,8.462,0,8.336-8.962,9.9-6.622.549.822.79,5.064.639,6.009Z" transform="translate(0.475 8.646)" fill="#ffac33"/>
    <path id="Vector-2" data-name="Vector" d="M10.325,0C4.622,0,0,2.929,0,6.542s4.622,6.542,10.325,6.542,10.325-2.929,10.325-6.542S16.026,0,10.325,0Zm0,8.545c-1.94,0-3.513-.448-3.513-1s1.573-1,3.513-1,3.512.448,3.512,1S12.264,8.545,10.325,8.545Z" transform="translate(0.732 3.83)" fill="#8a4b38"/>
    <path id="Vector-3" data-name="Vector" d="M.325.612A6.619,6.619,0,0,0,.618,5.453c1.3,2.032,1.943,1,2.9,1.308C4.946,7.218,5.051,8.4,6.18,8.986c1.277.668,2.02.473,3.832,0,2.555-.668,4.178.7,5.747,0,1.288-.571,2.024-2.643,2.741-2.893C20.778,5.3,21.259,1.542,19.564,0c-.532,1.169-3.14,5.369-4.816,5.565s-6.706.639-8.835-.5a23.765,23.765,0,0,1-4.55-2.949C1.1,1.724.325.612.325.612Z" transform="translate(0.726 8.73)" fill="#8a4b38"/>
    <path id="Vector-4" data-name="Vector" d="M4.151,0C1.858,0,0,.785,0,1.752A1.285,1.285,0,0,0,.761,2.762.386.386,0,0,1,.639,2.5c0-.553,1.573-1,3.513-1s3.512.448,3.512,1a.385.385,0,0,1-.122.258A1.286,1.286,0,0,0,8.3,1.752C8.3.785,6.444,0,4.151,0Z" transform="translate(6.905 8.869)" fill="#f4900c"/>
    <path id="Vector-5" data-name="Vector" d="M.64,2.116A.636.636,0,0,1,.074,1.76a.682.682,0,0,1,.266-.9L1.751.078a.624.624,0,0,1,.863.279.682.682,0,0,1-.266.9l-1.41.779A.616.616,0,0,1,.64,2.116ZM7.9,7.1a.638.638,0,0,1-.59-.413L6.861,5.541a.678.678,0,0,1,.345-.872.629.629,0,0,1,.834.362l.452,1.141a.678.678,0,0,1-.346.872A.6.6,0,0,1,7.9,7.1Z" transform="translate(2.062 9.48)" fill="#f4abba"/>
    <path id="Vector-6" data-name="Vector" d="M.638,2.559a.61.61,0,0,1-.324-.093.684.684,0,0,1-.225-.914L.781.328A.624.624,0,0,1,1.655.093a.685.685,0,0,1,.225.915L1.188,2.231a.633.633,0,0,1-.551.328Z" transform="translate(16.566 11.345)" fill="#55acee"/>
    <path id="Vector-7" data-name="Vector" d="M6.812,4.137A.688.688,0,0,1,6.79,2.766l.744-.033a.65.65,0,0,1,.661.641.676.676,0,0,1-.615.713l-.744.05ZM.639,1.5A.644.644,0,0,1,.03,1.036.675.675,0,0,1,.446.2l.5-.167a.633.633,0,0,1,.8.436.674.674,0,0,1-.416.838l-.5.167A.615.615,0,0,1,.639,1.5Z" transform="translate(11.456 4.807)" fill="#f4abba"/>
    <path id="Vector-8" data-name="Vector" d="M1.117,1.586a.62.62,0,0,1-.285-.07l-.479-.25a.682.682,0,0,1-.286-.9A.626.626,0,0,1,.924.07L1.4.321a.682.682,0,0,1,.286.9A.638.638,0,0,1,1.117,1.586ZM6.68,10.07A.618.618,0,0,1,6.4,10l-.479-.25a.682.682,0,0,1-.287-.9.626.626,0,0,1,.856-.3l.479.25a.682.682,0,0,1,.287.9.636.636,0,0,1-.572.37Z" transform="translate(7.437 5.809)" fill="#88c9f9"/>
    <path id="Vector-9" data-name="Vector" d="M1.835,7.846a.6.6,0,0,1-.252-.054.679.679,0,0,1-.335-.877l.24-.584a.628.628,0,0,1,.839-.35.679.679,0,0,1,.335.877l-.24.584a.639.639,0,0,1-.587.4Zm9.528-6.315a.637.637,0,0,1-.585-.4.679.679,0,0,1,.329-.879l.425-.195A.627.627,0,0,1,12.373.4a.681.681,0,0,1-.329.88l-.425.195a.612.612,0,0,1-.255.056ZM.985,1.5a.613.613,0,0,1-.144-.017L.5,1.4A.669.669,0,0,1,.017.6.638.638,0,0,1,.782.1l.346.083a.669.669,0,0,1,.479.8A.647.647,0,0,1,.985,1.5Z" transform="translate(3.925 6.559)" fill="#55acee"/>
  </g>
</svg>
