<svg id="Worried_face" data-name="Worried face" xmlns="http://www.w3.org/2000/svg" width="42" height="43" viewBox="0 0 42 43">
  <g id="Frame">
    <path id="Vector" d="M42,21.5A21.254,21.254,0,0,1,21,43,21.254,21.254,0,0,1,0,21.5,21.254,21.254,0,0,1,21,0,21.254,21.254,0,0,1,42,21.5Z" fill="#ffcc4d"/>
    <path id="Vector-2" data-name="Vector" d="M12.833,1.238A48.274,48.274,0,0,1,2.333.044C1.541-.113,0,.044,0,2.433c0,4.778,5.361,10.75,12.833,10.75S25.667,7.21,25.667,2.433c0-2.389-1.541-2.547-2.333-2.389A48.274,48.274,0,0,1,12.833,1.238Z" transform="translate(8.167 23.845)" fill="#664500"/>
    <path id="Vector-3" data-name="Vector" d="M0,0S3.5,1.194,10.5,1.194,21,0,21,0,18.667,4.778,10.5,4.778,0,0,0,0Z" transform="translate(10.5 26.278)" fill="#fff"/>
    <path id="Vector-4" data-name="Vector" d="M5.833,4.181c0,2.309-1.306,4.181-2.917,4.181S0,6.489,0,4.181,1.306,0,2.917,0,5.833,1.872,5.833,4.181Z" transform="translate(11.083 11.944)" fill="#664500"/>
    <path id="Vector-5" data-name="Vector" d="M5.833,4.181c0,2.309-1.306,4.181-2.917,4.181S0,6.489,0,4.181,1.306,0,2.917,0,5.833,1.872,5.833,4.181Z" transform="translate(25.083 11.944)" fill="#664500"/>
  </g>
</svg>
