<svg xmlns="http://www.w3.org/2000/svg" width="19" height="19.998" viewBox="0 0 19 19.998">
  <path id="Path" d="M9.49,0V1.5a2.141,2.141,0,0,0-1.324.46L1.973,6.94A1.474,1.474,0,0,0,1.5,8v8.255A2.412,2.412,0,0,0,3.91,18.5H5.648l.077-.005a.325.325,0,0,0,.308-.272l.027-.168V15.227l.023-.207a2.128,2.128,0,0,1,2.059-1.841h2.8l.251.03a2.129,2.129,0,0,1,1.8,2.1v2.806L13,18.2a.332.332,0,0,0,.315.3h1.925A2.416,2.416,0,0,0,17.5,16.1V8.026l-.007-.135a1.489,1.489,0,0,0-.573-1.047L16.9,6.83,10.833,1.975l-.124-.093A2.115,2.115,0,0,0,9.49,1.5V0m0,0a3.624,3.624,0,0,1,2.1.668l.161.12,6.089,4.871A3,3,0,0,1,18.99,7.788l.01.2V16.1A3.918,3.918,0,0,1,15.28,20H13.29a1.831,1.831,0,0,1-1.79-1.689l-.01-.141V15.309a.635.635,0,0,0-.54-.621l-.09-.01H8.189a.635.635,0,0,0-.619.54l-.01.091v2.85a1.088,1.088,0,0,1-.02.179l-.01.021-.011.069A1.822,1.822,0,0,1,5.83,19.989L5.7,20H3.91A3.916,3.916,0,0,1,0,16.3V7.989A2.967,2.967,0,0,1,1,5.8L7.23.788A3.627,3.627,0,0,1,9.49,0Z" fill="#ffa92c"/>
</svg>
