<svg id="Iconly_Bold_Scan" data-name="Iconly/Bold/Scan" xmlns="http://www.w3.org/2000/svg" width="35" height="35" viewBox="0 0 35 35">
  <g id="Scan">
    <path id="Scan-2" data-name="Scan" d="M22.751,30.625a1.089,1.089,0,1,1,0-2.178h2.324a3.558,3.558,0,0,0,3.588-3.52v-5.19H24.838v1.445a3.309,3.309,0,0,1-3.31,3.3H13.472a3.309,3.309,0,0,1-3.309-3.3V19.737H6.338v5.2a3.553,3.553,0,0,0,3.579,3.512l2.373,0a1.089,1.089,0,1,1,0,2.178l-2.376,0a5.755,5.755,0,0,1-5.8-5.69v-5.2H2.569a1.089,1.089,0,1,1,0-2.177H32.431a1.089,1.089,0,1,1,0,2.177H30.884v5.19a5.76,5.76,0,0,1-5.809,5.7ZM10.558,15.346a.405.405,0,0,1-.394-.392V13.138a3.309,3.309,0,0,1,3.309-3.3h8.056a3.3,3.3,0,0,1,3.31,3.3v1.816a.408.408,0,0,1-.4.392Zm18.105-2.568V10.071a3.559,3.559,0,0,0-3.589-3.519H22.751a1.088,1.088,0,1,1,0-2.176h2.323a5.758,5.758,0,0,1,5.809,5.7v2.707a1.11,1.11,0,0,1-2.219,0Zm-24.546,0V10.067a5.754,5.754,0,0,1,5.8-5.69l2.375,0h0a1.089,1.089,0,1,1,0,2.178l-2.376,0a3.551,3.551,0,0,0-3.576,3.512v2.712a1.111,1.111,0,0,1-2.221,0Z" fill="#fff"/>
  </g>
</svg>
